<svg width="512" height="512" viewBox="0 0 512 512" fill="none" xmlns="http://www.w3.org/2000/svg">
<rect width="512" height="512" fill="url(#paint0_linear_7920_13843)"/>
<path d="M166.248 170.894C162.765 171.547 159.345 171.827 155.986 171.734C152.659 171.671 149.673 171.096 147.03 170.008C144.418 168.888 142.428 167.1 141.059 164.644C139.815 162.342 139.162 160.01 139.1 157.647C139.038 155.252 139.007 152.547 139.007 149.53V106.523H151.695V148.784C151.695 150.743 151.71 152.516 151.741 154.102C151.803 155.656 152.13 156.9 152.721 157.833C153.84 159.606 155.628 160.57 158.085 160.725C160.542 160.881 163.263 160.756 166.248 160.352V170.894ZM130.424 130.312V120.517H166.248V130.312H130.424ZM175.609 170.894V120.517H186.804V132.831L185.591 131.245C186.244 129.504 187.115 127.918 188.203 126.487C189.291 125.057 190.629 123.875 192.214 122.942C193.427 122.196 194.749 121.621 196.179 121.216C197.61 120.781 199.087 120.517 200.611 120.423C202.134 120.299 203.658 120.33 205.182 120.517V132.365C203.783 131.929 202.15 131.789 200.284 131.945C198.449 132.069 196.786 132.489 195.293 133.204C193.8 133.888 192.541 134.806 191.515 135.956C190.489 137.076 189.711 138.413 189.183 139.968C188.654 141.492 188.39 143.218 188.39 145.146V170.894H175.609ZM213.122 113.52V102.325H225.81V113.52H213.122ZM213.122 170.894V120.517H225.81V170.894H213.122ZM262.65 172.293C257.644 172.293 253.461 171.127 250.103 168.795C246.744 166.463 244.21 163.291 242.499 159.279C240.82 155.268 239.98 150.743 239.98 145.705C239.98 140.668 240.82 136.143 242.499 132.131C244.179 128.12 246.651 124.948 249.916 122.616C253.181 120.283 257.208 119.117 261.997 119.117C266.817 119.117 271.015 120.268 274.592 122.569C278.168 124.87 280.935 128.027 282.895 132.038C284.885 136.019 285.88 140.574 285.88 145.705C285.88 150.743 284.9 155.268 282.941 159.279C281.013 163.291 278.308 166.463 274.825 168.795C271.342 171.127 267.284 172.293 262.65 172.293ZM237.835 170.894V103.724H250.616V136.376H249.03V170.894H237.835ZM260.598 161.005C263.334 161.005 265.573 160.321 267.315 158.953C269.056 157.584 270.347 155.75 271.187 153.449C272.026 151.116 272.446 148.535 272.446 145.705C272.446 142.907 272.011 140.357 271.14 138.055C270.269 135.723 268.916 133.873 267.082 132.505C265.278 131.105 262.961 130.406 260.131 130.406C257.488 130.406 255.343 131.043 253.694 132.318C252.077 133.593 250.896 135.381 250.149 137.682C249.403 139.983 249.03 142.658 249.03 145.705C249.03 148.753 249.403 151.427 250.149 153.728C250.896 156.03 252.108 157.818 253.788 159.093C255.498 160.368 257.768 161.005 260.598 161.005ZM295.211 170.894V102.325H307.899V170.894H295.211ZM326.454 193.284L336.157 166.603L336.343 174.439L314.42 120.517H327.574L342.314 158.673H339.329L353.975 120.517H366.663L338.209 193.284H326.454Z" fill="white"/>
<path d="M346.768 177.948H382.51V187.51H342.996L346.768 177.948Z" fill="#AFA6DD"/>
<path d="M329.065 178.029H289.498V187.591H325.637L329.065 178.029Z" fill="#AFA6DD"/>
<path d="M78.3 373.984C72.8867 373.984 68.29 372.957 64.51 370.904C60.7767 368.804 57.93 366.027 55.97 362.574C54.0567 359.074 53.1 355.224 53.1 351.024C53.1 347.524 53.6367 344.327 54.71 341.434C55.7833 338.541 57.51 335.997 59.89 333.804C62.3167 331.564 65.56 329.697 69.62 328.204C72.42 327.177 75.7567 326.267 79.63 325.474C83.5033 324.681 87.89 323.934 92.79 323.234C97.69 322.487 103.08 321.671 108.96 320.784L102.1 324.564C102.1 320.084 101.027 316.794 98.88 314.694C96.7333 312.594 93.14 311.544 88.1 311.544C85.3 311.544 82.3833 312.221 79.35 313.574C76.3167 314.927 74.1933 317.331 72.98 320.784L55.76 315.324C57.6733 309.071 61.2667 303.984 66.54 300.064C71.8133 296.144 79 294.184 88.1 294.184C94.7733 294.184 100.7 295.211 105.88 297.264C111.06 299.317 114.98 302.864 117.64 307.904C119.133 310.704 120.02 313.504 120.3 316.304C120.58 319.104 120.72 322.231 120.72 325.684V371.884H104.06V356.344L106.44 359.564C102.753 364.651 98.7633 368.337 94.47 370.624C90.2233 372.864 84.8333 373.984 78.3 373.984ZM82.36 359.004C85.86 359.004 88.8 358.397 91.18 357.184C93.6067 355.924 95.52 354.501 96.92 352.914C98.3667 351.327 99.3467 349.997 99.86 348.924C100.84 346.871 101.4 344.491 101.54 341.784C101.727 339.031 101.82 336.744 101.82 334.924L107.42 336.324C101.773 337.257 97.2 338.051 93.7 338.704C90.2 339.311 87.3767 339.871 85.23 340.384C83.0833 340.897 81.1933 341.457 79.56 342.064C77.6933 342.811 76.1767 343.627 75.01 344.514C73.89 345.354 73.05 346.287 72.49 347.314C71.9767 348.341 71.72 349.484 71.72 350.744C71.72 352.471 72.14 353.964 72.98 355.224C73.8667 356.437 75.1033 357.371 76.69 358.024C78.2767 358.677 80.1667 359.004 82.36 359.004ZM166.781 373.984C159.828 373.984 153.738 372.234 148.511 368.734C143.284 365.234 139.201 360.474 136.261 354.454C133.368 348.434 131.921 341.644 131.921 334.084C131.921 326.384 133.391 319.547 136.331 313.574C139.318 307.554 143.494 302.817 148.861 299.364C154.228 295.911 160.528 294.184 167.761 294.184C174.948 294.184 180.991 295.934 185.891 299.434C190.791 302.934 194.501 307.694 197.021 313.714C199.541 319.734 200.801 326.524 200.801 334.084C200.801 341.644 199.518 348.434 196.951 354.454C194.431 360.474 190.651 365.234 185.611 368.734C180.571 372.234 174.294 373.984 166.781 373.984ZM169.861 357.044C174.108 357.044 177.491 356.087 180.011 354.174C182.578 352.261 184.421 349.577 185.541 346.124C186.661 342.671 187.221 338.657 187.221 334.084C187.221 329.511 186.661 325.497 185.541 322.044C184.421 318.591 182.624 315.907 180.151 313.994C177.724 312.081 174.528 311.124 170.561 311.124C166.314 311.124 162.814 312.174 160.061 314.274C157.354 316.327 155.348 319.104 154.041 322.604C152.734 326.057 152.081 329.884 152.081 334.084C152.081 338.331 152.711 342.204 153.971 345.704C155.231 349.157 157.168 351.911 159.781 353.964C162.394 356.017 165.754 357.044 169.861 357.044ZM187.221 371.884V320.084H184.841V271.084H204.021V371.884H187.221ZM311.821 371.884V327.224C311.821 322.231 310.631 318.357 308.251 315.604C305.918 312.804 302.674 311.404 298.521 311.404C295.861 311.404 293.551 312.034 291.591 313.294C289.631 314.507 288.091 316.234 286.971 318.474C285.898 320.667 285.361 323.211 285.361 326.104L277.381 320.784C277.381 315.604 278.594 311.031 281.021 307.064C283.494 303.097 286.784 300.017 290.891 297.824C295.044 295.584 299.641 294.464 304.681 294.464C313.314 294.464 319.824 297.031 324.211 302.164C328.644 307.251 330.861 313.924 330.861 322.184V371.884H311.821ZM220.681 371.884V296.284H237.481V321.344H239.861V371.884H220.681ZM266.321 371.884V327.224C266.321 322.231 265.131 318.357 262.751 315.604C260.418 312.804 257.174 311.404 253.021 311.404C249.054 311.404 245.858 312.781 243.431 315.534C241.051 318.241 239.861 321.764 239.861 326.104L231.881 320.504C231.881 315.557 233.118 311.124 235.591 307.204C238.064 303.284 241.378 300.181 245.531 297.894C249.731 295.607 254.421 294.464 259.601 294.464C265.528 294.464 270.381 295.724 274.161 298.244C277.988 300.764 280.811 304.124 282.631 308.324C284.451 312.524 285.361 317.144 285.361 322.184V371.884H266.321ZM347.663 285.784V268.984H366.703V285.784H347.663ZM347.663 371.884V296.284H366.703V371.884H347.663ZM436.409 371.884V336.184C436.409 334.457 436.316 332.264 436.129 329.604C435.942 326.897 435.359 324.191 434.379 321.484C433.399 318.777 431.789 316.514 429.549 314.694C427.356 312.874 424.229 311.964 420.169 311.964C418.536 311.964 416.786 312.221 414.919 312.734C413.052 313.247 411.302 314.251 409.669 315.744C408.036 317.191 406.682 319.337 405.609 322.184C404.582 325.031 404.069 328.811 404.069 333.524L393.149 328.344C393.149 322.371 394.362 316.771 396.789 311.544C399.216 306.317 402.856 302.094 407.709 298.874C412.609 295.654 418.769 294.044 426.189 294.044C432.116 294.044 436.946 295.047 440.679 297.054C444.412 299.061 447.306 301.604 449.359 304.684C451.459 307.764 452.952 310.984 453.839 314.344C454.726 317.657 455.262 320.691 455.449 323.444C455.636 326.197 455.729 328.204 455.729 329.464V371.884H436.409ZM384.749 371.884V296.284H401.689V321.344H404.069V371.884H384.749Z" fill="white"/>
<defs>
<linearGradient id="paint0_linear_7920_13843" x1="256" y1="-56.5052" x2="249.665" y2="584.667" gradientUnits="userSpaceOnUse">
<stop stop-color="#9747FF"/>
<stop offset="0.289538" stop-color="#6420BD"/>
<stop offset="0.684985" stop-color="#6420BD"/>
<stop offset="0.966994" stop-color="#9747FF"/>
</linearGradient>
</defs>
</svg>
